<svg width="242" height="99" viewBox="0 0 242 99" fill="none" xmlns="http://www.w3.org/2000/svg">
<path d="M35.331 30.2169V48.6C35.331 48.9905 35.1282 49.3529 34.7955 49.5569L18.5228 59.5364C18.168 59.754 17.7219 59.7572 17.3641 59.5446L0.54899 49.5546C0.208637 49.3524 0 48.9857 0 48.5896V30.2273C0 29.8312 0.208635 29.4645 0.548988 29.2623L17.3641 19.2723C17.7219 19.0597 18.168 19.0629 18.5228 19.2805L34.7955 29.26C35.1282 29.464 35.331 29.8264 35.331 30.2169Z" fill="#FF00AE"/>
<path d="M74.5877 52.6627V71.0458C74.5877 71.4362 74.3848 71.7986 74.0521 72.0027L57.7795 81.9822C57.4247 82.1998 56.9786 82.2029 56.6207 81.9903L39.8057 72.0004C39.4653 71.7982 39.2567 71.4315 39.2567 71.0354V52.673C39.2567 52.277 39.4653 51.9103 39.8056 51.708L56.6207 41.7181C56.9786 41.5055 57.4247 41.5087 57.7795 41.7263L74.0521 51.7058C74.3848 51.9098 74.5877 52.2722 74.5877 52.6627Z" fill="#FF00AE"/>
<path d="M18.5228 64.0256L33.6233 54.7649C34.3706 54.3066 35.331 54.8447 35.331 55.7218V88.4236C35.331 88.8236 35.1183 89.1933 34.7726 89.3942L18.5003 98.8483C18.1568 99.0478 17.7334 99.0507 17.3872 98.8559L0.571733 89.3915C0.218561 89.1928 0 88.8188 0 88.4134V55.6892C0 54.8192 0.946586 54.28 1.69425 54.7242L17.3641 64.0337C17.7219 64.2463 18.168 64.2432 18.5228 64.0256Z" fill="#FF00AE"/>
<path d="M68.9974 10.0306L69.5224 28.9423C69.5335 29.3423 69.331 29.7179 68.9909 29.9282L40.9679 47.2555C40.2207 47.7176 39.2567 47.1797 39.2567 46.3008V27.3942C39.2567 27.013 39.0633 26.6578 38.7431 26.4512L23.482 16.5994C22.7614 16.1342 22.8079 15.0649 23.5661 14.664L51.0606 0.129969C51.3939 -0.0462139 51.7934 -0.0431022 52.1239 0.138252L68.4155 9.07774C68.7649 9.26942 68.9864 9.63213 68.9974 10.0306Z" fill="#FF00AE"/>
<path d="M78.1948 70.552V53.0712H82.0442V60.3302L88.83 53.0712H93.8638L86.091 61.1943L94.53 70.552H89.1508L82.0442 62.256V70.552H78.1948Z" fill="white"/>
<path d="M95.4351 70.552V58.5525H99.1365V70.552H95.4351ZM95.139 54.7748C95.139 53.5897 96.1014 52.6268 97.2858 52.6268C98.4702 52.6268 99.4326 53.5897 99.4326 54.7748C99.4326 55.96 98.4702 56.9229 97.2858 56.9229C96.1014 56.9229 95.139 55.96 95.139 54.7748Z" fill="white"/>
<path d="M101.796 70.552V58.5525H105.349V60.182H105.398C105.892 59.2438 107.101 58.2562 108.902 58.2562C112.653 58.2562 113.344 60.7252 113.344 63.935V70.552H109.643V64.6757C109.643 63.293 109.618 61.5153 107.718 61.5153C105.793 61.5153 105.497 63.0214 105.497 64.5769V70.552H101.796Z" fill="white"/>
<path d="M125.021 59.8364L122.751 62.0832C122.208 61.4165 121.492 61.0709 120.604 61.0709C119.987 61.0709 119.247 61.3425 119.247 62.0585C119.247 63.8362 125.49 62.3301 125.49 66.8978C125.49 69.9594 122.529 70.8483 119.962 70.8483C118.284 70.8483 116.434 70.4285 115.249 69.2187L117.495 66.725C118.186 67.5644 119 68.0336 120.11 68.0336C120.949 68.0336 121.788 67.8113 121.788 67.1694C121.788 65.2435 115.545 66.8731 115.545 62.3054C115.545 59.4907 118.062 58.2562 120.579 58.2562C122.158 58.2562 123.91 58.6512 125.021 59.8364Z" fill="white"/>
<path d="M127.387 51.8861H131.088V60.182H131.138C131.483 59.2438 132.692 58.2562 134.494 58.2562C138.244 58.2562 138.935 60.7252 138.935 63.935V70.552H135.234V64.6757C135.234 63.293 135.209 61.5153 133.309 61.5153C131.384 61.5153 131.088 63.0214 131.088 64.5769V70.552H127.387V51.8861Z" fill="white"/>
<path d="M141.606 70.552V58.5525H145.307V70.552H141.606ZM141.309 54.7748C141.309 53.5897 142.272 52.6268 143.456 52.6268C144.641 52.6268 145.603 53.5897 145.603 54.7748C145.603 55.96 144.641 56.9229 143.456 56.9229C142.272 56.9229 141.309 55.96 141.309 54.7748Z" fill="white"/>
<path d="M148.312 76.1814V58.5525H151.717V60.1326H151.766C152.334 59.2685 153.765 58.2562 155.443 58.2562C158.996 58.2562 161.34 60.824 161.34 64.4535C161.34 67.7867 159.267 70.8483 155.862 70.8483C154.332 70.8483 152.901 70.4285 152.062 69.2681H152.013V76.1814H148.312ZM151.717 64.5522C151.717 66.3546 152.827 67.5891 154.678 67.5891C156.528 67.5891 157.639 66.3546 157.639 64.5522C157.639 62.7498 156.528 61.5153 154.678 61.5153C152.827 61.5153 151.717 62.7498 151.717 64.5522Z" fill="white"/>
<path d="M185.665 55.1946L182.704 57.6142C181.939 56.7007 180.829 56.1822 179.397 56.1822C176.486 56.1822 174.339 58.5525 174.339 61.8116C174.339 65.0707 176.486 67.441 179.274 67.441C180.829 67.441 182.087 66.7497 182.877 65.5645L186.084 67.9595C184.629 70.0335 182.161 70.9964 179.768 70.9964C174.314 70.9964 170.341 67.4163 170.341 61.8116C170.341 56.2069 174.314 52.6268 179.768 52.6268C181.717 52.6268 184.184 53.2934 185.665 55.1946Z" fill="white"/>
<path d="M187.258 64.5522C187.258 60.7252 190.219 58.2562 193.921 58.2562C197.622 58.2562 200.583 60.7252 200.583 64.5522C200.583 68.3792 197.622 70.8483 193.921 70.8483C190.219 70.8483 187.258 68.3792 187.258 64.5522ZM190.96 64.5522C190.96 66.3546 192.07 67.5891 193.921 67.5891C195.771 67.5891 196.882 66.3546 196.882 64.5522C196.882 62.7498 195.771 61.5153 193.921 61.5153C192.07 61.5153 190.96 62.7498 190.96 64.5522Z" fill="white"/>
<path d="M215.348 51.8861V70.552H211.943V68.9718H211.893C211.326 69.836 209.895 70.8483 208.217 70.8483C204.663 70.8483 202.319 68.2805 202.319 64.651C202.319 61.3178 204.392 58.2562 207.797 58.2562C209.327 58.2562 210.758 58.6759 211.597 59.8364H211.646V51.8861H215.348ZM211.943 64.5522C211.943 62.7498 210.832 61.5153 208.982 61.5153C207.131 61.5153 206.02 62.7498 206.02 64.5522C206.02 66.3546 207.131 67.5891 208.982 67.5891C210.832 67.5891 211.943 66.3546 211.943 64.5522Z" fill="white"/>
<path d="M227.066 66.5768L229.657 68.478C228.472 69.9841 226.523 70.8483 224.598 70.8483C220.897 70.8483 217.936 68.3792 217.936 64.5522C217.936 60.7252 220.897 58.2562 224.598 58.2562C228.053 58.2562 230.224 60.7252 230.224 64.5522V65.7127H221.637C221.933 67.12 222.994 68.0336 224.426 68.0336C225.635 68.0336 226.449 67.4163 227.066 66.5768ZM221.637 63.1942H226.523C226.548 61.9597 225.585 60.9227 224.253 60.9227C222.624 60.9227 221.736 62.0338 221.637 63.1942Z" fill="white"/>
<path d="M241.531 59.8364L239.261 62.0832C238.718 61.4165 238.003 61.0709 237.114 61.0709C236.497 61.0709 235.757 61.3425 235.757 62.0585C235.757 63.8362 242 62.3301 242 66.8978C242 69.9594 239.039 70.8483 236.473 70.8483C234.795 70.8483 232.944 70.4285 231.76 69.2187L234.005 66.725C234.696 67.5644 235.51 68.0336 236.621 68.0336C237.46 68.0336 238.299 67.8113 238.299 67.1694C238.299 65.2435 232.056 66.8731 232.056 62.3054C232.056 59.4907 234.573 58.2562 237.09 58.2562C238.669 58.2562 240.421 58.6512 241.531 59.8364Z" fill="white"/>
</svg>

