<svg width="19" height="20" viewBox="0 0 19 20" fill="none" xmlns="http://www.w3.org/2000/svg">
<path d="M9.5 0.916672C7.72084 0.916672 6.01455 1.62344 4.75649 2.8815C3.49844 4.13955 2.79167 5.84584 2.79167 7.62501V11.006C2.79181 11.1547 2.75736 11.3013 2.69104 11.4344L1.04558 14.7243C0.965205 14.8851 0.927251 15.0637 0.935326 15.2432C0.943402 15.4227 0.997238 15.5972 1.09172 15.7501C1.18621 15.9029 1.3182 16.0291 1.47517 16.1166C1.63214 16.2041 1.80888 16.25 1.98858 16.25H17.0114C17.1911 16.25 17.3679 16.2041 17.5248 16.1166C17.6818 16.0291 17.8138 15.9029 17.9083 15.7501C18.0028 15.5972 18.0566 15.4227 18.0647 15.2432C18.0728 15.0637 18.0348 14.8851 17.9544 14.7243L16.3099 11.4344C16.2433 11.3014 16.2085 11.1547 16.2083 11.006V7.62501C16.2083 5.84584 15.5016 4.13955 14.2435 2.8815C12.9855 1.62344 11.2792 0.916672 9.5 0.916672ZM9.5 19.125C8.90521 19.1253 8.32496 18.9411 7.83923 18.5979C7.35349 18.2546 6.98618 17.7691 6.78792 17.2083H12.2121C12.0138 17.7691 11.6465 18.2546 11.1608 18.5979C10.675 18.9411 10.0948 19.1253 9.5 19.125Z" fill="white"/>
</svg>
