<svg width="20" height="20" viewBox="0 0 20 20" fill="none" xmlns="http://www.w3.org/2000/svg">
<path d="M8.82501 20C8.37501 20 7.98768 19.85 7.66301 19.55C7.33834 19.25 7.14234 18.8833 7.07501 18.45L6.85001 16.8C6.63334 16.7167 6.42934 16.6167 6.23801 16.5C6.04668 16.3833 5.85901 16.2583 5.67501 16.125L4.12501 16.775C3.70834 16.9583 3.29168 16.975 2.87501 16.825C2.45834 16.675 2.13334 16.4083 1.90001 16.025L0.725011 13.975C0.491678 13.5917 0.425011 13.1833 0.525011 12.75C0.625011 12.3167 0.850011 11.9583 1.20001 11.675L2.52501 10.675C2.50834 10.5583 2.50001 10.4457 2.50001 10.337V9.662C2.50001 9.554 2.50834 9.44167 2.52501 9.325L1.20001 8.325C0.850011 8.04167 0.625011 7.68333 0.525011 7.25C0.425011 6.81667 0.491678 6.40833 0.725011 6.025L1.90001 3.975C2.13334 3.59167 2.45834 3.325 2.87501 3.175C3.29168 3.025 3.70834 3.04167 4.12501 3.225L5.67501 3.875C5.85834 3.74167 6.05001 3.61667 6.25001 3.5C6.45001 3.38333 6.65001 3.28333 6.85001 3.2L7.07501 1.55C7.14168 1.11667 7.33768 0.75 7.66301 0.45C7.98834 0.15 8.37568 0 8.82501 0H11.175C11.625 0 12.0127 0.15 12.338 0.45C12.6633 0.75 12.859 1.11667 12.925 1.55L13.15 3.2C13.3667 3.28333 13.571 3.38333 13.763 3.5C13.955 3.61667 14.1423 3.74167 14.325 3.875L15.875 3.225C16.2917 3.04167 16.7083 3.025 17.125 3.175C17.5417 3.325 17.8667 3.59167 18.1 3.975L19.275 6.025C19.5083 6.40833 19.575 6.81667 19.475 7.25C19.375 7.68333 19.15 8.04167 18.8 8.325L17.475 9.325C17.4917 9.44167 17.5 9.55433 17.5 9.663V10.337C17.5 10.4457 17.4833 10.5583 17.45 10.675L18.775 11.675C19.125 11.9583 19.35 12.3167 19.45 12.75C19.55 13.1833 19.4833 13.5917 19.25 13.975L18.05 16.025C17.8167 16.4083 17.4917 16.675 17.075 16.825C16.6583 16.975 16.2417 16.9583 15.825 16.775L14.325 16.125C14.1417 16.2583 13.95 16.3833 13.75 16.5C13.55 16.6167 13.35 16.7167 13.15 16.8L12.925 18.45C12.8583 18.8833 12.6627 19.25 12.338 19.55C12.0133 19.85 11.6257 20 11.175 20H8.82501ZM10.05 13.5C11.0167 13.5 11.8417 13.1583 12.525 12.475C13.2083 11.7917 13.55 10.9667 13.55 10C13.55 9.03333 13.2083 8.20833 12.525 7.525C11.8417 6.84167 11.0167 6.5 10.05 6.5C9.06668 6.5 8.23734 6.84167 7.56201 7.525C6.88668 8.20833 6.54934 9.03333 6.55001 10C6.55068 10.9667 6.88834 11.7917 7.56301 12.475C8.23768 13.1583 9.06668 13.5 10.05 13.5Z" fill="white"/>
</svg>
