<svg width="17" height="19" viewBox="0 0 17 19" fill="none" xmlns="http://www.w3.org/2000/svg">
<path d="M11.45 0.759951C11.2829 0.720111 11.1117 0.699974 10.94 0.699951H5.85998C2.91998 0.699951 0.609985 4.66995 0.609985 9.72995C0.609985 14.79 2.91998 18.76 5.85998 18.76H10.94C11.11 18.76 11.28 18.74 11.45 18.7C14.11 18.21 16.11 14.45 16.11 9.72995C16.11 5.00995 14.11 1.24995 11.45 0.759951ZM7.68998 17.76H6.85998C6.79998 17.76 6.73999 17.75 6.67999 17.74C8.69999 17.1399 10.2 13.88 10.2 9.81995C10.2 5.44995 8.45999 1.99995 6.20999 1.80995C6.41999 1.74995 6.63999 1.69995 6.85998 1.69995H7.68998C9.39998 1.69995 11.23 4.92995 11.23 9.72995C11.23 14.53 9.39998 17.76 7.68998 17.76Z" fill="white"/>
</svg>
